<?xml version="1.0" encoding="UTF-8" standalone="no"?>
<!-- Created with Inkscape (http://www.inkscape.org/) -->

<svg
   width="200mm"
   height="200mm"
   viewBox="0 0 200 200"
   version="1.1"
   id="svg1"
   xml:space="preserve"
   xmlns="http://www.w3.org/2000/svg"
   xmlns:svg="http://www.w3.org/2000/svg"><defs
     id="defs1" /><g
     id="layer2"
     transform="translate(-5,-48.500001)"><rect
       style="display:none;fill:#dbcabc;fill-opacity:1;stroke-width:1.05833;stroke-linecap:round;stroke-linejoin:round;stroke-miterlimit:23.6;stroke-dashoffset:185.046;stroke-opacity:0.530061"
       id="rect1"
       width="200"
       height="200"
       x="5"
       y="48.5"
       rx="200"
       ry="200" /><rect
       style="display:inline;fill:#dbcabc;fill-opacity:1;stroke-width:1.05833;stroke-linecap:round;stroke-linejoin:round;stroke-miterlimit:23.6;stroke-dashoffset:185.046;stroke-opacity:0.530061"
       id="rect34"
       width="200"
       height="200"
       x="5"
       y="48.5"
       rx="10"
       ry="10" /></g><g
     id="layer4"
     style="display:none;fill:#315d73;fill-opacity:1;stroke-width:0.973895"
     transform="matrix(1.040629,0,0,1.0131523,20.64996,1.3794347)"><path
       id="path7"
       style="display:none;fill:#487185;fill-opacity:1;stroke:none;stroke-width:1.41246;stroke-linecap:round;stroke-linejoin:round;stroke-miterlimit:23.6;stroke-dashoffset:185.046;stroke-opacity:0.530061"
       d="m 101.13336,-7.8098592 c -0.26306,-0.00153 -0.54306,0.03554 -0.84026,0.1152384 -2.984475,0.8003439 -3.06034,5.5678181 -1.965768,7.82484541 0.560608,1.15597679 1.902748,2.37594269 3.287658,1.91047769 3.57537,-1.20143662 3.46433,-9.8276676 -0.48163,-9.8505615 z"
       transform="matrix(0.72972393,0,0,0.72972393,0.8835648,31.165035)" /><path
       id="path5"
       style="display:none;fill:#487185;fill-opacity:1;stroke:none;stroke-width:1.41246;stroke-linecap:round;stroke-linejoin:round;stroke-miterlimit:23.6;stroke-dashoffset:185.046;stroke-opacity:0.530061"
       d="m 99.421302,-7.8098592 c 0.26306,-0.00153 0.54306,0.03554 0.840258,0.1152384 2.98448,0.8003439 3.06034,5.5678181 1.96577,7.82484541 -0.56061,1.15597679 -1.90275,2.37594269 -3.287658,1.91047769 -3.57537,-1.20143662 -3.46433,-9.8276676 0.48163,-9.8505615 z"
       transform="matrix(0.72972393,0,0,0.72972393,16.523625,31.165035)" /><path
       d="m 73.397554,52.681602 c 0.186503,4.920376 0.4571,11.648481 -2.664746,14.907914 -3.240673,3.383498 -9.817651,1.939742 -13.964096,1.939742 -9.067738,0 -18.940631,-1.121585 -25.580272,7.146395 -1.41229,1.758649 -2.510876,3.701182 -3.452261,5.794745 -1.203885,2.677335 -1.669785,5.536824 -1.706353,8.466417 h -0.06566 c -0.02008,2.68375 0.407793,5.419901 1.39902,8.093566 2.596727,7.004209 8.721781,11.696309 15.298642,13.348669 5.164637,1.29758 10.990997,0.5575 16.262174,0.5575 h 29.519839 12.196829 c 2.91195,0 5.50022,-0.13615 7.56349,2.511 1.29167,1.65724 1.27482,3.55138 1.27482,5.60143 0,1.30174 0.18871,2.80554 -0.1954,4.05546 -1.13456,3.69193 -4.32272,4.21558 -7.40527,4.24979 l -2.175067,0.024 v 0.0408 l -70.959232,-0.2586 -0.124199,18.92868 76.617018,-0.008 c 16.41788,-0.78552 24.23394,-19.83542 20.30101,-35.531 -2.24609,-8.96373 -9.25486,-16.178687 -17.64972,-17.8438 -4.87111,-0.966191 -10.258995,-0.312154 -15.201736,-0.312154 H 64.934212 c -6.238607,0 -12.500847,0.175666 -18.73706,-0.0022 -1.556557,-0.04451 -3.401203,-1.366327 -3.609685,-3.160813 h 0.114311 c -0.206644,-1.751017 1.769181,-3.158562 3.284553,-3.157253 l 17.146202,0.01481 c 3.790095,0.0033 7.270561,0.178972 10.959186,-1.127226 2.334004,-0.8265 4.604714,-2.159625 6.540631,-3.800935 1.730566,-1.467205 3.354511,-3.188901 4.640457,-5.132696 4.97662,-7.522401 4.17055,-16.562972 4.140105,-25.346207 z"
       id="path3"
       style="display:inline;fill:#487185" /><path
       id="path75"
       style="display:inline;fill:#487185;fill-opacity:1;fill-rule:nonzero;stroke:none;stroke-width:0.973901"
       d="m 71.406008,52.75709 c 0.08003,2.111251 0.211568,5.137446 -0.08108,7.782127 -0.133856,1.209663 -0.356627,2.366051 -0.712258,3.375638 -0.331723,0.941718 -0.770213,1.722982 -1.319157,2.296119 -0.258687,0.270088 -0.559576,0.502965 -0.909131,0.702512 -0.342855,0.195722 -0.737229,0.36198 -1.189161,0.49729 -0.885578,0.265146 -1.936883,0.395665 -3.152904,0.425027 -1.171142,0.02828 -2.385324,-0.03793 -3.66696,-0.122479 -1.17405,-0.07745 -2.480052,-0.177042 -3.606643,-0.177042 -2.190674,0 -4.51382,-0.07094 -6.909458,-0.04595 -2.308318,0.02408 -4.735645,0.140767 -7.125109,0.546826 -2.33502,0.396806 -4.69824,1.07955 -6.954091,2.271796 -2.210084,1.168057 -4.293487,2.812536 -6.145549,5.118806 -1.494494,1.861014 -2.682468,3.926828 -3.715998,6.225313 -1.311998,2.917771 -1.841231,6.032645 -1.881502,9.258868 l 1.992821,-1.9681 c -0.0214,0 -0.04332,0 -0.06566,0 a 1.9929761,1.992977 0.21434049 0 0 -1.99292,1.978066 c -0.02137,2.856695 0.425834,5.841169 1.523253,8.801268 1.419108,3.827787 3.801607,7.037087 6.741721,9.512947 2.901169,2.44305 6.346985,4.17314 9.939987,5.07584 2.817606,0.7079 5.756179,0.84879 8.593228,0.82534 2.829321,-0.0234 5.604241,-0.20777 8.154552,-0.20777 9.795319,0 19.646149,0 29.519853,0 4.060677,0 8.130718,0 12.19682,0 0.76323,0 1.40697,-0.008 2.03693,0.0183 0.61727,0.0258 1.14205,0.0828 1.60911,0.19207 0.45848,0.10726 0.85746,0.26414 1.22254,0.49108 0.36452,0.22661 0.74079,0.55131 1.12302,1.0417 0.20578,0.26402 0.35628,0.53246 0.46993,0.81184 0.1151,0.28297 0.19913,0.5939 0.25827,0.94626 0.12463,0.74262 0.12554,1.55456 0.12554,2.61815 0,0.0729 0.0463,2.1177 0.0463,2.04476 -7.6e-4,0.63052 -0.049,1.08427 -0.15382,1.42526 -0.20906,0.68029 -0.48985,1.14477 -0.78545,1.47667 -0.298,0.33458 -0.66088,0.59023 -1.1004,0.78828 -0.45158,0.20349 -0.98716,0.34711 -1.60965,0.43971 -0.62731,0.0933 -1.30605,0.12972 -2.02684,0.13772 -0.73819,0.008 -1.46422,0.0161 -2.174935,0.024 a 1.9929761,1.9929772 89.683908 0 0 -1.970988,1.99285 c 0,0.0139 0,0.0276 0,0.0408 l 2.000239,-1.99296 c -23.031275,-0.0839 -46.722133,-0.17027 -70.959236,-0.2586 a 1.9929715,1.9929773 0.29237071 0 0 -2.000192,1.97988 c -0.04058,6.18504 -0.08204,12.50342 -0.124199,18.92868 a 1.992973,1.9929768 0.18497719 0 0 1.993138,2.00606 c 25.166268,-0.003 50.737633,-0.005 76.617023,-0.008 a 1.9727799,2.0140813 44.220173 0 0 0.0951,-0.002 c 2.2395,-0.10716 4.34892,-0.52641 6.31479,-1.21963 1.95998,-0.69116 3.76459,-1.65015 5.40437,-2.82859 3.26551,-2.34678 5.85534,-5.54686 7.73931,-9.20402 1.87424,-3.63828 3.0629,-7.75294 3.52444,-11.99086 0.45953,-4.2195 0.20135,-8.59123 -0.84398,-12.76297 -1.20585,-4.81232 -3.68974,-9.17611 -7.03174,-12.572367 -3.32023,-3.374119 -7.51776,-5.820487 -12.16345,-6.741955 -2.63999,-0.523643 -5.36827,-0.599821 -7.99483,-0.556208 -2.633243,0.04372 -5.209383,0.20597 -7.594656,0.20597 -9.251867,0 -18.512673,0 -27.752173,0 -6.379568,0 -12.465345,0.175868 -18.680238,-0.0014 -0.124521,-0.0036 -0.3004,-0.03543 -0.507268,-0.118271 -0.20534,-0.08223 -0.411471,-0.203 -0.594516,-0.353435 -0.183634,-0.15092 -0.325869,-0.316578 -0.423474,-0.478969 -0.09638,-0.160358 -0.145617,-0.310507 -0.161587,-0.447966 l -1.979661,2.22297 c 0.03851,0 0.07666,0 0.114311,0 a 1.9929761,1.9929761 86.634722 0 0 1.979241,-2.226554 c -0.0028,-0.02383 -0.0038,-0.06417 0.0335,-0.142685 0.04276,-0.08991 0.132333,-0.217428 0.28999,-0.354238 0.157647,-0.136801 0.349399,-0.252843 0.544827,-0.331554 0.20127,-0.08106 0.355053,-0.102292 0.435274,-0.102223 5.833851,0.005 11.55765,0.01 17.146203,0.01481 1.876746,0.0016 3.761483,0.04761 5.650415,-0.07686 1.964987,-0.12949 3.937249,-0.442807 5.975753,-1.164672 2.675966,-0.947593 5.14347,-2.446229 7.164193,-4.159439 1.958241,-1.660232 3.673379,-3.527103 5.013794,-5.553231 1.383146,-2.090692 2.334219,-4.253812 2.9946,-6.416251 0.683252,-2.237337 1.061831,-4.496698 1.274616,-6.691335 0.430363,-4.438707 0.215076,-9.484289 0.201693,-13.345155 a 1.9929761,1.9929761 89.90076 0 0 -1.99296,-1.986068 c -6.140043,-1.3e-5 -11.52254,-2.5e-5 -16.015358,-3.4e-5 z m 1.991542,1.917488 c 4.004529,9e-6 8.715863,1.9e-5 14.040436,3e-5 0.04645,3.586854 0.139614,7.446008 -0.201151,10.960613 -0.194815,2.009297 -0.533923,3.994584 -1.119415,5.911801 -0.56358,1.845463 -1.362048,3.650887 -2.506766,5.381185 -1.10231,1.666215 -2.551255,3.257424 -4.267125,4.71217 -1.690998,1.433662 -3.742735,2.672473 -5.91707,3.442432 -1.606367,0.568839 -3.197101,0.831975 -4.907332,0.944677 -1.713995,0.11295 -3.380834,0.06998 -5.384849,0.06824 -5.588576,-0.0048 -11.312375,-0.0098 -17.146226,-0.01481 -0.674085,-5.83e-4 -1.335221,0.152148 -1.927855,0.390838 -0.591353,0.238175 -1.165498,0.582244 -1.668108,1.018393 -0.497162,0.431423 -0.958924,0.98363 -1.277182,1.65283 -0.320972,0.674905 -0.493219,1.467189 -0.39237,2.321745 l 1.979241,-2.226554 c -0.03765,0 -0.0758,0 -0.114311,0 a 1.9929808,1.992976 86.686505 0 0 -1.979659,2.22298 c 0.08805,0.757888 0.346711,1.445977 0.704559,2.04135 0.354677,0.590097 0.809408,1.094407 1.309008,1.505002 0.49755,0.408909 1.057225,0.739505 1.64349,0.974285 0.582041,0.233088 1.220514,0.383608 1.875313,0.402334 6.281867,0.179168 12.572616,0.003 18.794034,0.003 9.239499,0 18.500305,0 27.752144,0 2.561245,0 5.15198,-0.16486 7.660844,-0.206519 2.53219,-0.04205 4.92818,0.03926 7.15315,0.480586 3.77065,0.747905 7.27059,2.754709 10.09787,5.627881 2.84531,2.8915 4.97398,6.62521 6.00641,10.74544 0.92517,3.69222 1.15889,7.5887 0.74789,11.3626 -0.41299,3.7921 -1.4731,7.42857 -3.10534,10.59708 -1.64025,3.18405 -3.84208,5.86663 -6.52199,7.79257 -1.34455,0.96626 -2.81391,1.74567 -4.4038,2.30631 -1.58074,0.55742 -3.2919,0.9026 -5.13346,0.99506 -25.14327,0.003 -50.043355,0.005 -74.562021,0.008 0.02449,-3.73247 0.06159,-9.38594 0.098,-14.93529 23.545166,0.0858 46.570621,0.16972 68.972074,0.25136 a 1.9929761,1.9929761 0.10468562 0 0 2.00024,-1.99296 c 0,-0.0132 0,-0.0269 0,-0.0408 l -1.970986,1.99285 c 0.710716,-0.008 1.436746,-0.0159 2.175066,-0.024 0.81321,-0.009 1.69165,-0.0503 2.56924,-0.18085 0.87158,-0.12966 1.78383,-0.35312 2.66066,-0.74822 0.87983,-0.39646 1.72111,-0.96479 2.43942,-1.7713 0.71427,-0.80197 1.25916,-1.78586 1.61901,-2.95683 0.27777,-0.90389 0.32874,-1.82263 0.32967,-2.59133 1.3e-4,-0.11096 -0.0462,-2.16052 -0.0463,-2.04957 0,-0.97592 0.01,-2.14356 -0.18053,-3.27788 -0.0979,-0.58317 -0.25159,-1.18494 -0.49707,-1.78841 -0.24602,-0.60481 -0.57753,-1.19481 -1.01828,-1.76031 -0.6485,-0.832 -1.36922,-1.48341 -2.16247,-1.97653 -0.79075,-0.49156 -1.60743,-0.79722 -2.41897,-0.98706 -0.80134,-0.18747 -1.59825,-0.26195 -2.35064,-0.29339 -0.7387,-0.0309 -1.50969,-0.0218 -2.20333,-0.0218 -4.066112,0 -8.136153,0 -12.196829,0 -9.873705,0 -19.724535,0 -29.519837,0 -2.737459,0 -5.513638,0.18581 -8.187499,0.20791 -2.714526,0.0224 -5.258136,-0.11971 -7.589034,-0.70533 -3.019897,-0.75871 -5.916714,-2.21513 -8.343777,-4.25895 -2.452189,-2.06497 -4.409574,-4.71466 -5.571821,-7.849612 -0.914651,-2.467114 -1.292882,-4.967399 -1.274787,-7.385861 l -1.99292,1.978064 c 0.02234,0 0.04426,0 0.06566,0 a 1.9929761,1.9929774 0.35757392 0 0 1.992821,-1.968102 c 0.03524,-2.823535 0.495896,-5.37153 1.531202,-7.67396 0.930808,-2.070042 1.954232,-3.827182 3.188526,-5.364182 1.503864,-1.872679 3.160124,-3.170907 4.900182,-4.090549 1.791573,-0.946869 3.727681,-1.520967 5.759376,-1.866227 2.090374,-0.355233 4.279795,-0.467558 6.498897,-0.490706 2.285256,-0.02384 4.596337,0.04617 6.867882,0.04617 0.958284,0 2.087278,0.08547 3.344256,0.168397 1.289055,0.08504 2.659403,0.16295 4.025564,0.129963 1.417591,-0.03423 2.853515,-0.188213 4.199954,-0.591342 0.699723,-0.2095 1.380631,-0.488014 2.021994,-0.854141 0.660111,-0.376831 1.270151,-0.841715 1.811625,-1.407054 1.052811,-1.09921 1.739287,-2.420743 2.200088,-3.728896 0.490448,-1.392316 0.760689,-2.871515 0.914504,-4.261551 0.33183,-2.998759 0.179192,-6.345623 0.102403,-8.371496 z" /><g
       id="g83"
       transform="matrix(2.1286765,0,0,1.139894,9.9299858,-117.46292)"
       style="display:inline;fill:#487185;fill-opacity:1;stroke-width:0.625212"><path
         id="path82"
         style="display:inline;fill:#487185;fill-opacity:1;stroke:none;stroke-width:0.661686;stroke-linecap:round;stroke-linejoin:round;stroke-miterlimit:23.6;stroke-dashoffset:185.046;stroke-opacity:0.530061"
         d="m 31.148738,207.18219 c -2.114854,0.0352 -3.806486,1.6578 -3.806486,3.67161 v 27.88408 c 0,2.01381 1.69163,3.63697 3.806486,3.67213 z" /><path
         id="path83"
         style="display:inline;fill:#487185;fill-opacity:1;stroke:none;stroke-width:0.661686;stroke-linecap:round;stroke-linejoin:round;stroke-miterlimit:23.6;stroke-dashoffset:185.046;stroke-opacity:0.530061"
         d="m 30.434076,207.18219 c 2.114854,0.0352 3.806486,1.6578 3.806486,3.67161 v 27.88408 c 0,2.01381 -1.69163,3.63697 -3.806486,3.67213 z" /></g><g
       id="g81"
       transform="matrix(2.1286765,0,0,1.139894,-32.174796,-117.46292)"
       style="display:inline;fill:#487185;fill-opacity:1;stroke-width:0.625212"><path
         id="path80"
         style="display:inline;fill:#487185;fill-opacity:1;stroke:none;stroke-width:0.661686;stroke-linecap:round;stroke-linejoin:round;stroke-miterlimit:23.6;stroke-dashoffset:185.046;stroke-opacity:0.530061"
         d="m 31.148738,207.18219 c -2.114854,0.0352 -3.806486,1.6578 -3.806486,3.67161 v 27.88408 c 0,2.01381 1.69163,3.63697 3.806486,3.67213 z" /><path
         id="path81"
         style="display:inline;fill:#487185;fill-opacity:1;stroke:none;stroke-width:0.661686;stroke-linecap:round;stroke-linejoin:round;stroke-miterlimit:23.6;stroke-dashoffset:185.046;stroke-opacity:0.530061"
         d="m 30.434076,207.18219 c 2.114854,0.0352 3.806486,1.6578 3.806486,3.67161 v 27.88408 c 0,2.01381 -1.69163,3.63697 -3.806486,3.67213 z" /></g><g
       id="g32"
       transform="matrix(2.1286765,0,0,1.139894,29.9216,-152.71283)"
       style="display:inline;fill:#487185;fill-opacity:1;stroke-width:0.625212"><path
         id="path31"
         style="display:inline;fill:#487185;fill-opacity:1;stroke:none;stroke-width:0.661686;stroke-linecap:round;stroke-linejoin:round;stroke-miterlimit:23.6;stroke-dashoffset:185.046;stroke-opacity:0.530061"
         d="m 31.148738,207.18219 c -2.114854,0.0352 -3.806486,1.6578 -3.806486,3.67161 v 27.88408 c 0,2.01381 1.69163,3.63697 3.806486,3.67213 z" /><path
         id="path32"
         style="display:inline;fill:#487185;fill-opacity:1;stroke:none;stroke-width:0.661686;stroke-linecap:round;stroke-linejoin:round;stroke-miterlimit:23.6;stroke-dashoffset:185.046;stroke-opacity:0.530061"
         d="m 30.434076,207.18219 c 2.114854,0.0352 3.806486,1.6578 3.806486,3.67161 v 27.88408 c 0,2.01381 -1.69163,3.63697 -3.806486,3.67213 z" /></g></g><g
     id="layer1"
     transform="translate(5.521942,-0.16116237)"><g
       id="g28"
       transform="matrix(0,1.3321644,-1.0131523,0,202.11227,-8.2810943)"
       style="display:inline;fill:#315d73;fill-opacity:1;stroke-width:0.860758"><path
         id="path27"
         style="display:inline;fill:#487185;fill-opacity:1;stroke:none;stroke-width:0.860763"
         d="m 76.137112,14.341361 c 0.689629,2.625104 6.540805,4.672642 4.12226,7.890333 -0.277511,0.369206 -0.889047,0.529944 -1.578889,0.620321 h 2.650532 0.115633 2.65118 c -0.689849,-0.09038 -1.301365,-0.251115 -1.578883,-0.620321 -2.418538,-3.217691 3.432618,-5.265229 4.122254,-7.890333 -2.996049,0.268535 -3.917231,2.046479 -5.252354,3.405167 -1.335124,-1.358688 -2.255665,-3.136632 -5.251706,-3.405167 z" /><path
         id="path28"
         style="display:inline;fill:#487185;fill-opacity:1;stroke:none;stroke-width:0.860763"
         d="m 80.393841,21.904312 c -0.460541,0.230617 -1.105962,0.215662 -1.543788,0.346838 -1.053618,0.315674 -1.875241,0.991008 -2.569814,1.901488 -4.210369,5.519203 -8.425095,12.408886 -9.223172,19.69989 -0.417832,3.817238 1.204697,7.879544 3.310658,10.816245 0.804291,1.121566 0.837814,3.22374 0.875896,4.612997 l 0.16384,5.976999 1.993648,-0.04408 h 7.909188 0.185902 l 9.871991,0.137457 0.03047,-1.467942 0.208444,-5.793724 c 0.04997,-1.38886 0.02699,-2.300142 0.831287,-3.421708 2.105959,-2.936701 3.728488,-6.999007 3.310658,-10.816245 C 94.950967,36.561524 90.736243,29.671841 86.525882,24.152638 85.831309,23.242158 85.009686,22.566824 83.956068,22.25115 83.518243,22.119974 82.872821,22.134929 82.41228,21.904312 H 81.496209 81.310306 Z M 74.81556,37.478869 c 2.636255,0.01671 2.710239,6.311501 0.321571,7.188218 -0.925244,0.339661 -1.82189,-0.550439 -2.196427,-1.393983 -0.731272,-1.647007 -0.680315,-5.126046 1.313587,-5.710076 0.198556,-0.05816 0.385521,-0.08527 0.561269,-0.08416 z m 13.175389,0 c 0.175748,-0.0011 0.362713,0.026 0.561269,0.08416 1.9939,0.58403 2.044461,4.063069 1.31319,5.710076 -0.374537,0.843544 -1.271187,1.733644 -2.196431,1.393983 -2.388668,-0.876717 -2.314283,-7.171512 0.321972,-7.188219 z" /></g><g
       id="g18"
       transform="matrix(1,0,0,2.7233764,0,-137.98619)"
       style="stroke-width:0.605963"><path
         style="display:inline;fill:#487185;fill-opacity:1;fill-rule:nonzero;stroke:none;stroke-width:0.641108;stroke-linecap:round;stroke-linejoin:round;stroke-miterlimit:23.6;stroke-dasharray:none;stroke-dashoffset:185.046;stroke-opacity:0.530061"
         d="m 30.986739,100.80557 c 16.666667,0 66.666667,0 100.000001,0 V 74.085676 c -33.333334,0 -83.333334,0 -100.000001,0 z m 0,0 c 16.666667,0 66.666667,0 100.000001,0 V 74.085676 c -33.333334,0 -83.333334,0 -100.000001,0 z"
         id="path13" /><g
         id="g15"
         transform="matrix(2.9861265,0,0,1.1548862,-56.99026,-172.16829)"
         style="display:inline;fill:#487185;fill-opacity:1;stroke-width:0.326304"><path
           id="path14"
           style="display:inline;fill:#487185;fill-opacity:1;stroke:none;stroke-width:0.34534;stroke-linecap:round;stroke-linejoin:round;stroke-miterlimit:23.6;stroke-dashoffset:185.046;stroke-opacity:0.530061"
           d="m 31.148738,207.18219 c -2.114854,0.0352 -3.806486,1.6578 -3.806486,3.67161 v 27.88408 c 0,2.01381 1.69163,3.63697 3.806486,3.67213 z" /><path
           id="path15"
           style="display:inline;fill:#1d4457;fill-opacity:1;stroke:none;stroke-width:0.34534;stroke-linecap:round;stroke-linejoin:round;stroke-miterlimit:23.6;stroke-dashoffset:185.046;stroke-opacity:0.530061"
           d="m 30.434076,207.18219 c 2.114854,0.0352 3.806486,1.6578 3.806486,3.67161 v 27.88408 c 0,2.01381 -1.69163,3.63697 -3.806486,3.67213 z" /></g><g
         id="g19"
         transform="matrix(2.9861265,0,0,1.1548862,-13.243246,-172.16829)"
         style="display:inline;fill:#487185;fill-opacity:1;stroke-width:0.326304"><path
           id="path18"
           style="display:inline;fill:#487185;fill-opacity:1;stroke:none;stroke-width:0.34534;stroke-linecap:round;stroke-linejoin:round;stroke-miterlimit:23.6;stroke-dashoffset:185.046;stroke-opacity:0.530061"
           d="m 31.148738,207.18219 c -2.114854,0.0352 -3.806486,1.6578 -3.806486,3.67161 v 27.88408 c 0,2.01381 1.69163,3.63697 3.806486,3.67213 z" /><path
           id="path19"
           style="display:inline;fill:#1d4457;fill-opacity:1;stroke:none;stroke-width:0.34523;stroke-linecap:round;stroke-linejoin:round;stroke-miterlimit:23.6;stroke-dasharray:none;stroke-dashoffset:185.046;stroke-opacity:0.530061"
           d="m 30.434076,207.18219 c 2.114854,0.0352 3.806486,1.6578 3.806486,3.67161 v 27.88408 c 0,2.01381 -1.69163,3.63697 -3.806486,3.67213 z" /></g><g
         id="g17"
         transform="matrix(-2.9861265,0,0,1.1548862,221.8294,-172.16829)"
         style="display:inline;fill:#487185;fill-opacity:1;stroke-width:0.326304"><path
           id="path16"
           style="display:inline;fill:#487185;fill-opacity:1;stroke:none;stroke-width:0.34534;stroke-linecap:round;stroke-linejoin:round;stroke-miterlimit:23.6;stroke-dashoffset:185.046;stroke-opacity:0.530061"
           d="m 31.148738,207.18219 c -2.114854,0.0352 -3.806486,1.6578 -3.806486,3.67161 v 27.88408 c 0,2.01381 1.69163,3.63697 3.806486,3.67213 z" /><path
           id="path17"
           style="display:inline;fill:#1d4457;fill-opacity:1;stroke:none;stroke-width:0.34523;stroke-linecap:round;stroke-linejoin:round;stroke-miterlimit:23.6;stroke-dasharray:none;stroke-dashoffset:185.046;stroke-opacity:0.530061"
           d="m 30.434076,207.18219 c 2.114854,0.0352 3.806486,1.6578 3.806486,3.67161 v 27.88408 c 0,2.01381 -1.69163,3.63697 -3.806486,3.67213 z" /></g></g></g></svg>
